<?xml version="1.0" encoding="UTF-8"?>
<svg id="Camada_2" data-name="Camada 2" xmlns="http://www.w3.org/2000/svg" viewBox="0 0 388.05 185.93">
  <defs>
    <style>
      .cls-1 {
        fill: #6900ff;
      }

      .cls-2 {
        fill: #09002b;
      }

      .cls-3 {
        fill: #848791;
      }
    </style>
  </defs>
  <g id="Camada_1-2" data-name="Camada 1">
    <g>
      <g>
        <polygon class="cls-2" points="75.14 92.97 96.62 55.78 139.54 55.78 118.07 92.97 75.14 92.97"/>
        <polygon class="cls-2" points="214.71 111.56 171.77 111.56 150.3 74.37 150.3 74.35 128.82 37.19 128.82 37.16 150.28 0 150.3 0 171.75 37.16 171.75 37.19 171.77 37.19 193.23 74.37 214.71 111.56"/>
        <polygon class="cls-2" points="193.23 148.75 171.77 185.93 150.3 148.75 64.41 148.75 42.93 111.56 21.48 74.37 21.46 74.37 21.46 74.35 0 37.19 42.95 37.19 64.41 74.35 64.41 74.37 85.89 111.56 171.77 111.56 193.23 148.75"/>
        <g>
          <polygon class="cls-1" points="150.28 0 128.82 37.16 128.82 37.19 0 37.19 0 37.16 21.46 0 150.28 0"/>
          <polygon class="cls-1" points="64.41 148.75 85.89 111.56 171.77 111.56 150.3 148.75 64.41 148.75"/>
        </g>
      </g>
      <g>
        <path class="cls-3" d="M251.53,92.91l18.36-74.31h28.88l18.36,74.31h-12.85l-4.25-18.05h-31.42l-4.25,18.05h-12.85ZM270.75,65.09h27.18l-8.71-36.31h-9.77l-8.71,36.31Z"/>
        <path class="cls-3" d="M323.93,82.93V28.57l9.98-9.98h40.55l9.98,9.98v54.89l-12.53,8.92V29.42h-35.46v53.08l51.59,8.92v11.26l-54.14-9.77-9.98-9.98Z"/>
      </g>
      <g>
        <path class="cls-3" d="M251.53,114.5l4.66-2.59v8.28h13.46v4.14h-13.46v19.67h13.46v4.14h-13.46l-4.66-4.66v-28.99Z"/>
        <path class="cls-3" d="M285.14,143.5v-19.68l4.66-4.66h20.19v16.05h-20.19v8.8h19.16v4.14h-19.16l-4.66-4.66ZM289.8,131.59l15.74-.52v-7.77h-15.74v8.28Z"/>
        <path class="cls-3" d="M322.62,143.5v-19.68l4.66-4.66h19.16v4.14h-19.16v20.71h19.16v4.14h-19.16l-4.66-4.66Z"/>
        <path class="cls-3" d="M358.56,148.39v-36.24h4.66v7.25h16.57l4.66,4.66v24.33h-4.66v-24.85h-16.57v24.85h-4.66Z"/>
      </g>
    </g>
  </g>
</svg>